<mxfile host="app.diagrams.net" modified="2020-10-28T15:40:42.834Z" agent="5.0 (Windows NT 10.0; Win64; x64) AppleWebKit/537.36 (KHTML, like Gecko) Chrome/86.0.4240.111 Safari/537.36" etag="SpgGwOmXO9okj993Dlt3" version="13.8.5" type="github">
  <diagram id="C5RBs43oDa-KdzZeNtuy" name="Page-1">
    <mxGraphModel dx="1422" dy="794" grid="1" gridSize="10" guides="1" tooltips="1" connect="1" arrows="1" fold="1" page="1" pageScale="1" pageWidth="827" pageHeight="1169" math="0" shadow="0">
      <root>
        <mxCell id="WIyWlLk6GJQsqaUBKTNV-0" />
        <mxCell id="WIyWlLk6GJQsqaUBKTNV-1" parent="WIyWlLk6GJQsqaUBKTNV-0" />
        <mxCell id="wjbys2B_rgqz2FeZUaH_-0" value="frame" style="shape=umlFrame;whiteSpace=wrap;html=1;" vertex="1" parent="WIyWlLk6GJQsqaUBKTNV-1">
          <mxGeometry width="840" height="1280" as="geometry" />
        </mxCell>
        <mxCell id="wjbys2B_rgqz2FeZUaH_-1" value="&lt;&lt;Form&gt;&gt;&#xa;Form1" style="swimlane;fontStyle=1;align=center;verticalAlign=top;childLayout=stackLayout;horizontal=1;startSize=40;horizontalStack=0;resizeParent=1;resizeParentMax=0;resizeLast=0;collapsible=1;marginBottom=0;" vertex="1" parent="WIyWlLk6GJQsqaUBKTNV-1">
          <mxGeometry x="360" y="40" width="160" height="90" as="geometry" />
        </mxCell>
        <mxCell id="wjbys2B_rgqz2FeZUaH_-3" value="" style="line;strokeWidth=1;fillColor=none;align=left;verticalAlign=middle;spacingTop=-1;spacingLeft=3;spacingRight=3;rotatable=0;labelPosition=right;points=[];portConstraint=eastwest;" vertex="1" parent="wjbys2B_rgqz2FeZUaH_-1">
          <mxGeometry y="40" width="160" height="8" as="geometry" />
        </mxCell>
        <mxCell id="wjbys2B_rgqz2FeZUaH_-4" value="command1Click()&#xa;command2Click()" style="text;strokeColor=none;fillColor=none;align=left;verticalAlign=top;spacingLeft=4;spacingRight=4;overflow=hidden;rotatable=0;points=[[0,0.5],[1,0.5]];portConstraint=eastwest;" vertex="1" parent="wjbys2B_rgqz2FeZUaH_-1">
          <mxGeometry y="48" width="160" height="42" as="geometry" />
        </mxCell>
        <mxCell id="wjbys2B_rgqz2FeZUaH_-5" value="" style="endArrow=open;endFill=1;endSize=12;html=1;entryX=0.5;entryY=0;entryDx=0;entryDy=0;" edge="1" parent="WIyWlLk6GJQsqaUBKTNV-1" target="wjbys2B_rgqz2FeZUaH_-14">
          <mxGeometry width="160" relative="1" as="geometry">
            <mxPoint x="380" y="130" as="sourcePoint" />
            <mxPoint x="540" y="130" as="targetPoint" />
          </mxGeometry>
        </mxCell>
        <mxCell id="wjbys2B_rgqz2FeZUaH_-14" value="&lt;&lt;ADO Class&gt;&gt;&#xa;Author" style="swimlane;fontStyle=1;align=center;verticalAlign=top;childLayout=stackLayout;horizontal=1;startSize=40;horizontalStack=0;resizeParent=1;resizeParentMax=0;resizeLast=0;collapsible=1;marginBottom=0;" vertex="1" parent="WIyWlLk6GJQsqaUBKTNV-1">
          <mxGeometry x="200" y="200" width="160" height="270" as="geometry" />
        </mxCell>
        <mxCell id="wjbys2B_rgqz2FeZUaH_-16" value="" style="line;strokeWidth=1;fillColor=none;align=left;verticalAlign=middle;spacingTop=-1;spacingLeft=3;spacingRight=3;rotatable=0;labelPosition=right;points=[];portConstraint=eastwest;" vertex="1" parent="wjbys2B_rgqz2FeZUaH_-14">
          <mxGeometry y="40" width="160" height="8" as="geometry" />
        </mxCell>
        <mxCell id="wjbys2B_rgqz2FeZUaH_-17" value="eof()&#xa;getOne()&#xa;query()&#xa;&lt;&lt;get&gt;&gt; recordset()&#xa;&lt;&lt;get&gt;&gt; name()&#xa;&lt;&lt;get&gt;&gt; id()&#xa;&lt;&lt;get&gt;&gt; fName()&#xa;&lt;&lt;get&gt;&gt; lName()&#xa;&lt;&lt;get&gt;&gt;phone()&#xa;&lt;&lt;get&gt;&gt; address()&#xa;&lt;&lt;get&gt;&gt; city()&#xa;&lt;&lt;get&gt;&gt; state()&#xa;&lt;&lt;get&gt;&gt; zip()&#xa;&lt;&lt;get&gt;&gt; contract()&#xa;getNew()" style="text;strokeColor=none;fillColor=none;align=left;verticalAlign=top;spacingLeft=4;spacingRight=4;overflow=hidden;rotatable=0;points=[[0,0.5],[1,0.5]];portConstraint=eastwest;" vertex="1" parent="wjbys2B_rgqz2FeZUaH_-14">
          <mxGeometry y="48" width="160" height="222" as="geometry" />
        </mxCell>
        <mxCell id="wjbys2B_rgqz2FeZUaH_-18" value="&lt;&lt;ADO Class&gt;&gt;&#xa;Authors" style="swimlane;fontStyle=1;align=center;verticalAlign=top;childLayout=stackLayout;horizontal=1;startSize=40;horizontalStack=0;resizeParent=1;resizeParentMax=0;resizeLast=0;collapsible=1;marginBottom=0;" vertex="1" parent="WIyWlLk6GJQsqaUBKTNV-1">
          <mxGeometry x="520" y="200" width="160" height="340" as="geometry" />
        </mxCell>
        <mxCell id="wjbys2B_rgqz2FeZUaH_-20" value="" style="line;strokeWidth=1;fillColor=none;align=left;verticalAlign=middle;spacingTop=-1;spacingLeft=3;spacingRight=3;rotatable=0;labelPosition=right;points=[];portConstraint=eastwest;" vertex="1" parent="wjbys2B_rgqz2FeZUaH_-18">
          <mxGeometry y="40" width="160" height="8" as="geometry" />
        </mxCell>
        <mxCell id="wjbys2B_rgqz2FeZUaH_-21" value="addNew()&#xa;bof()&#xa;getAll()&#xa;moveFirst()&#xa;moveLast()&#xa;moveNext()&#xa;movePrevious()&#xa;query()&#xa;&lt;&lt;get&gt;&gt; recordset()&#xa;&lt;&lt;get&gt;&gt; name()&#xa;&lt;&lt;get&gt;&gt; id()&#xa;&lt;&lt;get&gt;&gt; fName()&#xa;&lt;&lt;get&gt;&gt; lName()&#xa;&lt;&lt;get&gt;&gt;phone()&#xa;&lt;&lt;get&gt;&gt; address()&#xa;&lt;&lt;get&gt;&gt; city()&#xa;&lt;&lt;get&gt;&gt; state()&#xa;&lt;&lt;get&gt;&gt; zip()&#xa;&lt;&lt;get&gt;&gt; contract()&#xa;getNew()" style="text;strokeColor=none;fillColor=none;align=left;verticalAlign=top;spacingLeft=4;spacingRight=4;overflow=hidden;rotatable=0;points=[[0,0.5],[1,0.5]];portConstraint=eastwest;" vertex="1" parent="wjbys2B_rgqz2FeZUaH_-18">
          <mxGeometry y="48" width="160" height="292" as="geometry" />
        </mxCell>
        <mxCell id="wjbys2B_rgqz2FeZUaH_-22" value="" style="endArrow=open;endFill=1;endSize=12;html=1;entryX=0.5;entryY=0;entryDx=0;entryDy=0;" edge="1" parent="WIyWlLk6GJQsqaUBKTNV-1" target="wjbys2B_rgqz2FeZUaH_-18">
          <mxGeometry width="160" relative="1" as="geometry">
            <mxPoint x="480" y="130" as="sourcePoint" />
            <mxPoint x="640" y="130" as="targetPoint" />
          </mxGeometry>
        </mxCell>
      </root>
    </mxGraphModel>
  </diagram>
</mxfile>
